<svg version="1.1"
     viewBox="0 0 100 100"
     height="26"
     width="26">
	<path d="M60.5,58.8c0,0.5,0.4,0.9,0.9,0.9h7c0.4,0,0.7-0.2,0.7-0.5v-0.5h2.7c0.4,0,0.7-0.2,0.7-0.5v-2.8c0-0.3-0.3-0.5-0.7-0.5H69v-0.5c0-0.3-0.3-0.5-0.7-0.5h-7c-0.5,0-0.9,0.4-0.9,0.9V58.8z"/>
	<path d="M71.8,20.4h-6.2c0-0.3-0.3-0.6-0.6-0.6h-8.5c-0.5,0-0.9,0.4-0.9,0.9v7.3c0,0.5,0.4,0.9,0.9,0.9c2.4,0,8.5,0,8.5,0c0.3,0,0.6-0.2,0.6-0.6h6.2c0.3,0,0.6-0.3,0.6-0.6V21C72.4,20.6,72.1,20.4,71.8,20.4z M69.6,26.8
		c0,0.1-0.1,0.1-0.1,0.1h-0.8c-0.1,0-0.1-0.1-0.1-0.1v-1.6c0-0.1,0.1-0.1,0.1-0.1h0.8c0.1,0,0.1,0.1,0.1,0.1V26.8z M69.6,23.5
		c0,0.1-0.1,0.1-0.1,0.1h-0.8c-0.1,0-0.1-0.1-0.1-0.1V22c0-0.1,0.1-0.1,0.1-0.1h0.8c0.1,0,0.1,0.1,0.1,0.1V23.5z"/>
	<path d="M71.7,33.5l-37.4,0c-9.3,0-17.5,6.9-18.4,16.2c-1,10.7,7.4,19.7,17.8,19.7l37.5,0c6.7,0,12.5-5,12.9-11.7
		c0.5-7.3-5.3-13.4-12.5-13.4l-37.6,0c-3.7,0-7,2.7-7.4,6.4c-0.4,4.2,2.9,7.8,7.1,7.8h24.9c0.2,0,0.4-0.2,0.4-0.4v-2.5
		c0-0.2-0.2-0.4-0.4-0.4l-24.6,0c-2,0-3.7-1.4-3.9-3.3c-0.2-2.2,1.5-4.1,3.7-4.1l37.6,0c4.6,0,8.8,3.3,9.4,7.9
		c0.7,5.6-3.6,10.3-9.1,10.3l-37.4,0c-7.7,0-14.5-5.8-15-13.6c-0.6-8.5,6.2-15.6,14.5-15.6l37.3,0c10.7,0,20,8.2,20.5,19
		c0.6,11.5-8.6,21-19.9,21l-37.1,0c-14.3,0-26.5-11.7-26.2-26c0.1-6.6,2.8-12.8,7.5-17.5c4.8-4.8,11.2-7.4,18-7.4l19.9,0
		c0.2,0,0.4-0.2,0.4-0.4l0-2.5c0-0.2-0.2-0.4-0.4-0.4l-20.1,0c-8.7,0-16.9,4-22.5,11c-2.9,3.7-4.9,8.1-5.7,12.7
		C2.3,64.4,16.3,80.2,33.8,80.2l37.2,0c12.6,0,23.4-9.6,24-22.2C95.6,44.6,84.9,33.5,71.7,33.5z"/>
</svg>
