<?xml version="1.0" encoding="UTF-8" standalone="no"?>
<svg xmlns:rdf="http://www.w3.org/1999/02/22-rdf-syntax-ns#"
     xmlns="http://www.w3.org/2000/svg"
     height="200"
     width="200"
     version="1.1"
     xmlns:cc="http://creativecommons.org/ns#"
     xmlns:dc="http://purl.org/dc/elements/1.1/">

 <title>Green Audio Icon</title>
 <desc>Green audio spiker glossy icon</desc>
 <metadata>
  <rdf:RDF xmlns:cc="http://web.resource.org/cc/" xmlns:dc="http://purl.org/dc/elements/1.1/" xmlns:rdf="http://www.w3.org/1999/02/22-rdf-syntax-ns#">
   <cc:Work rdf:about="">
    <dc:title>Green Audio Icon</dc:title>
    <dc:description>Green audio spiker glossy icon</dc:description>
    <dc:subject>
      <rdf:Bag>
        <rdf:li>green</rdf:li>
        <rdf:li>box</rdf:li>
        <rdf:li>glossy</rdf:li>
        <rdf:li>spiker</rdf:li>
        <rdf:li>audio</rdf:li>
        <rdf:li>sound</rdf:li>
        <rdf:li>volume</rdf:li>
      </rdf:Bag>
    </dc:subject>
    <dc:publisher>
      <cc:Agent rdf:about="http://www.openclipart.org">
        <dc:title>Open Clip Art Library</dc:title>
      </cc:Agent>
    </dc:publisher>
    <dc:creator>
     <cc:Agent>
      <dc:title>Jakub Jankiewicz</dc:title>
     </cc:Agent>
    </dc:creator>
    <dc:rights>
     <cc:Agent>
      <dc:title>Jakub Jankiewicz</dc:title>
     </cc:Agent>
    </dc:rights>
    <dc:date>2011-11-01T10:00+01:00</dc:date>
    <dc:format>image/svg+xml</dc:format>
    <dc:type rdf:resource="http://purl.org/dc/dcmitype/StillImage"/>
    <cc:license rdf:resource="http://web.resource.org/cc/PublicDomain"/>
    <dc:language>pl</dc:language>
  </cc:Work>
  <cc:License rdf:about="http://web.resource.org/cc/PublicDomain">
    <cc:permits rdf:resource="http://web.resource.org/cc/Reproduction"/>
    <cc:permits rdf:resource="http://web.resource.org/cc/Distribution"/>
    <cc:permits rdf:resource="http://web.resource.org/cc/DerivativeWorks"/>
  </cc:License>
 </rdf:RDF>
 </metadata> 
 <defs>
  <linearGradient id="linearGradient3776" y2="120.79" gradientUnits="userSpaceOnUse" x2="96.525" y1="-6.1639" x1="96.525">
   <stop stop-color="#FFF" offset="0"/>
   <stop stop-color="#FFF" stop-opacity="0" offset="1"/>
  </linearGradient>
 </defs>
 <rect style="enable-background:accumulate;color:#000000;" fill-rule="nonzero" rx="8.1475" ry="8.1475" height="200" width="200" y="0" x="0" fill="#113f00"/>
 <rect style="enable-background:accumulate;color:#000000;" stroke-dasharray="none" fill-rule="nonzero" rx="4.5016" ry="4.5016" height="180.07" width="180.07" stroke="#FFF" stroke-miterlimit="4" y="9.9672" x="9.9672" stroke-width="2" fill="#1e7100"/>
 <path opacity="0.80344828" style="enable-background:accumulate;color:#000000;" d="M8.1562,0c-4.5137,0-8.1562,3.6425-8.1562,8.1562v80.594c26.877,11.53,60.402,18.41,96.781,18.41,39.339,0,75.359-8.036,103.22-21.316v-77.688c0-4.5137-3.64-8.1562-8.16-8.1562h-183.68z" fill-rule="nonzero" fill="url(#linearGradient3776)"/>
 <path fill="#FFF" d="m105.75,43.755c-0.80778-0.002-1.7531,0.32503-2.6684,1.0855l-35.638,29.624c-1.5897,1.3207-2.2733,1.5377-4.4775,1.5377h-22.93c-3.1445,0-5.6534,2.5089-5.6534,5.6534v36.679c0,3.1445,2.5089,5.6534,5.6534,5.6534h22.93c2.2042,0,2.8878,0.21708,4.4775,1.5377l35.639,29.624c2.4408,2.0278,5.0654,1.0501,5.0654-1.3568v-107.6c0-1.5043-1.0507-2.4391-2.397-2.4423zm45.815,10.764-8.4122,8.4122c14.466,22.617,14.48,51.652,0,74.263l8.367,8.3218c18.773-27.381,18.809-63.612,0.0451-90.997zm-20.307,20.262-8.2766,8.3218c7.5308,10.088,7.5308,23.832,0,33.92l8.2313,8.2313c11.925-14.663,11.958-35.804,0.0451-50.474z"/>
</svg>
