<svg xmlns="http://www.w3.org/2000/svg"
     xmlns:xlink="http://www.w3.org/1999/xlink"
     version="1.1"
     width="26"
     height="26"
     viewBox="0 0 100 100">

  <path fill="#000000"
        d="M100.65,39.538H70.96v-5.249c0-0.603-0.23-1.175-0.656-1.601c-0.431-0.421-0.999-0.661-1.596-0.661H31.507  c-0.598,0-1.185,0.245-1.601,0.661c-0.421,0.421-0.666,1.003-0.666,1.601v5.249H0v14.884h29.24v5.249  c0,0.602,0.24,1.175,0.666,1.601c0.431,0.426,0.994,0.656,1.601,0.656h37.201c0.597,0,1.165-0.23,1.596-0.656  c0.426-0.431,0.656-0.999,0.656-1.601v-5.249h29.69V39.538z M33.764,57.408V36.551h32.672v7.344H51.194  c-1.699,0-3.075,1.381-3.075,3.085c0,1.699,1.375,3.08,3.075,3.08h15.241v7.349H33.764z"/>
</svg>
