<svg width="43" height="14" viewBox="0 0 86 28" version="1.1">
  <g id="Page-1" stroke="none" stroke-width="1" fill="none" fill-rule="evenodd">
    <path d="M81.9,1.7 C83.5,4 87.6,9.9 85.2,17.5 C84.9,18.4 84.8,19.3 84.8,20.1 L84.8,25.3 C84.8,25.9 84.3,26.4 83.7,26.5 C80.9,27 72.3,28.1 63,27.7 C62.5,27.7 62.1,27.3 62.1,26.8 L62.1,24.1 C62.1,24.1 58.8,23.6 48.7,26.5 C45.8,27.3 42.7,27.8 39.7,27.9 C31.4,28.1 14.3,27.8 1.1,23.5 C0.8,23.4 0.6,23.1 0.6,22.8 C0.7,22.2 1.3,13.4 11.7,15 C11.7,15 24.1,16.7 33.2,9.4 C33.9,8.9 34.5,8.3 35.2,7.8 L44,1.5 C44.9,0.8 46.1,0.8 47.1,1.3 C51.9,3.8 66.7,10.3 79.7,1.3 C80.4,0.8 81.4,1 81.9,1.7 L81.9,1.7 Z" id="Shape" fill="#000000">
    </path>
  </g>
</svg>
